<svg xmlns="http://www.w3.org/2000/svg" width="98" height="73" viewBox="0 0 98 73" fill="none">
  <path d="M94.7512 48.4556V48.3528" stroke="#231F20" stroke-miterlimit="10"/>
  <path d="M1.01245 29.4406V29.4919" stroke="#231F20" stroke-miterlimit="10"/>
  <path d="M15.9161 23.032C13.3979 22.0041 13.7576 24.3682 11.8047 23.2375C9.33793 21.85 12.5242 27.4517 9.18376 29.6101C5.84329 31.7686 5.53493 27.4003 3.94179 25.8585C2.45142 24.3682 1.21802 28.9934 1.06384 29.5433C1.26941 20.411 4.14735 9.87566 13.6035 0.316772C13.5007 0.830691 13.0381 14.0384 14.1688 20.4624C14.4394 21.4939 15.0563 22.4011 15.9161 23.032Z" fill="#ED1556"/>
  <path d="M18.8967 24.8718C23.7276 27.2359 31.4877 28.9318 38.4256 29.8568C36.2672 29.5999 33.3378 31.6556 28.0959 29.5999C22.7511 27.5956 24.7554 29.3429 18.8967 24.8718Z" fill="#ED1556"/>
  <path d="M94.7512 43.0594C94.1345 39.9759 95.6762 38.4855 93.5178 36.9437C91.3593 35.402 94.5456 34.3228 92.2844 31.7018C90.0231 29.0808 87.9161 31.4962 88.0702 29.4919C88.2244 27.4876 92.2844 27.3335 92.2844 27.3335L90.3315 24.8667C88.43 22.3998 84.37 28.2071 81.081 29.4919C77.7919 30.7767 80.2073 27.3335 75.6848 27.3335C71.1623 27.3335 67.976 30.8281 67.976 30.8281C67.976 30.8281 67.1024 30.1086 61.1409 31.7018C55.1795 33.2949 61.2951 34.1172 57.8004 35.145C54.3058 36.1729 55.3336 40.5926 54.6655 37.8174C53.9974 35.0422 52.5585 37.8174 50.0917 39.5647C47.6248 41.3121 55.3336 40.5926 51.9932 42.0315C48.6527 43.4705 43.9246 50.4084 46.0831 46.6054C48.2416 42.8024 44.6441 41.1579 45.8775 36.9951C47.1109 32.8324 43.051 37.8688 41.869 36.2243C40.6869 34.5797 44.7983 34.8881 44.4386 32.781C44.1302 30.8281 40.9439 30.1086 38.7341 29.8517L38.3229 29.8003C36.1645 29.5433 33.2351 31.599 27.9932 29.5433C22.7512 27.4876 24.7041 29.2864 18.794 24.8153C17.7359 24.3092 16.7364 23.6888 15.8133 22.9652C13.2951 21.9373 13.6548 24.3013 11.7533 23.1707C9.28652 21.7831 12.4728 27.3849 9.13235 29.5433C5.79188 31.7018 5.48353 27.3335 3.89038 25.7917C2.40001 24.3013 1.16661 28.9266 1.01243 29.4919C0.755475 40.7467 4.55847 49.9459 5.27796 52.9266C7.02528 60.1215 10.006 64.387 14.6313 67.933C19.2565 71.4791 24.4471 72.25 29.5349 72.25C34.6227 72.25 40.3786 70.2457 45.2094 64.9523C48.3957 61.4063 49.1666 61.1493 49.3208 61.3549C49.475 61.1493 50.2458 61.4063 53.4321 64.9523C58.263 70.2971 64.0189 72.25 69.1067 72.25C74.1944 72.25 79.385 71.4791 84.0103 67.933C88.6356 64.387 91.6677 60.1215 93.3636 52.9266C93.5692 52.0016 94.0831 50.5112 94.6998 48.5069V48.4041C95.1021 46.6471 95.1197 44.8238 94.7512 43.0594ZM28.0445 66.1857C20.3872 66.1857 14.1687 58.4769 14.1687 48.9694C14.1687 39.4619 20.3872 31.7532 28.0445 31.7532C35.7019 31.7532 41.9204 39.4619 41.9204 48.9694C41.9204 58.4769 35.7019 66.1857 28.0445 66.1857ZM70.6484 66.1857C62.991 66.1857 56.7726 58.4769 56.7726 48.9694C56.7726 39.4619 62.991 31.7532 70.6484 31.7532C78.3058 31.7532 84.5242 39.4619 84.5242 48.9694C84.5242 58.4769 78.3058 66.1857 70.6484 66.1857Z" fill="#231F20"/>
  <path d="M94.7513 48.3528C95.111 46.6067 95.111 44.8055 94.7513 43.0594C94.1345 39.9759 95.6763 38.4855 93.5178 36.9438C91.3594 35.402 94.5457 34.3228 92.2845 31.7018C90.0232 29.0808 87.9161 31.4963 88.0703 29.492C88.2245 27.4877 92.2845 27.3335 92.2845 27.3335L90.3316 24.8667C88.4301 22.3999 84.3701 28.2072 81.081 29.492C77.7919 30.7768 80.2074 27.3335 75.6849 27.3335C71.1624 27.3335 67.9761 30.8282 67.9761 30.8282C67.9761 30.8282 67.1024 30.1087 61.141 31.7018C55.1795 33.295 61.2952 34.1172 57.8005 35.1451C54.3059 36.1729 55.3337 40.5926 54.6656 37.8174C53.9975 35.0423 52.5585 37.8174 50.0917 39.5648C47.6249 41.3121 55.3337 40.5926 51.9932 42.0316C48.6528 43.4706 43.9247 50.4085 46.0832 46.6055C48.2416 42.8025 44.6442 41.1579 45.8776 36.9952C47.111 32.8324 43.051 37.8688 41.869 36.2243C40.687 34.5798 44.7984 34.8881 44.4386 32.781C44.1303 30.8282 40.944 30.1087 38.7341 29.8517C42.2249 30.3317 45.7461 30.555 49.2695 30.5198C59.3937 30.7768 83.2909 25.7918 84.4729 19.3164C85.6549 12.841 85.141 0.763919 85.0382 0.25C102.511 17.826 97.6806 38.6397 94.7513 48.3528Z" fill="#ED1556"/>
  <path d="M41.9203 48.9181C41.9203 58.4255 35.7019 66.1343 28.0445 66.1343C20.3871 66.1343 14.1687 58.4255 14.1687 48.9181C14.1687 39.4106 20.3871 31.7018 28.0445 31.7018C35.7019 31.7018 41.9203 39.4106 41.9203 48.9181Z" fill="#00AC5F"/>
  <path d="M70.6485 66.1343C78.3119 66.1343 84.5243 58.4263 84.5243 48.9181C84.5243 39.4098 78.3119 31.7018 70.6485 31.7018C62.9851 31.7018 56.7727 39.4098 56.7727 48.9181C56.7727 58.4263 62.9851 66.1343 70.6485 66.1343Z" fill="#00AC5F"/>
  <path d="M28.0446 53.1065C30.3436 53.1065 32.2073 51.2428 32.2073 48.9437C32.2073 46.6447 30.3436 44.781 28.0446 44.781C25.7456 44.781 23.8818 46.6447 23.8818 48.9437C23.8818 51.2428 25.7456 53.1065 28.0446 53.1065Z" fill="#231F20"/>
  <path d="M70.6485 53.0809C72.9475 53.0809 74.8112 51.2171 74.8112 48.9181C74.8112 46.6191 72.9475 44.7554 70.6485 44.7554C68.3494 44.7554 66.4857 46.6191 66.4857 48.9181C66.4857 51.2171 68.3494 53.0809 70.6485 53.0809Z" fill="#231F20"/>
</svg>